<svg width="512" height="512" viewBox="0 0 512 512" xmlns="http://www.w3.org/2000/svg">
  <defs>
    <linearGradient id="bg" x1="0%" y1="0%" x2="100%" y2="100%">
      <stop offset="0%" stop-color="#6D28D9"/>
      <stop offset="100%" stop-color="#2563EB"/>
    </linearGradient>
    <linearGradient id="arrow" x1="0%" y1="0%" x2="0%" y2="100%">
      <stop offset="0%" stop-color="#E0E7FF"/>
      <stop offset="100%" stop-color="#C7D2FE"/>
    </linearGradient>
  </defs>

  <rect x="32" y="32" width="448" height="448" rx="120" fill="url(#bg)"/>

  <!-- Upward arrow -->
  <path d="M256 126l86 96h-54v120h-64V222h-54l86-96z" fill="url(#arrow)" stroke="#F8FAFC" stroke-width="12" stroke-linejoin="round"/>

  <!-- Smooth stream wave -->
  <path d="M96 330c36-22 78-28 118-14 62 21 86 21 148 0 20-7 38-9 54-7-22 38-78 77-160 77-78 0-131-31-160-56z" fill="#0F172A" opacity="0.28"/>
  <path d="M110 318c34-18 74-21 112-6 62 25 100 24 158 2" stroke="#E0E7FF" stroke-width="10" stroke-linecap="round" opacity="0.8" />
</svg>
